<svg xmlns="http://www.w3.org/2000/svg" xmlns:osb="http://www.openswatchbook.org/uri/2009/osb" xmlns:svg="http://www.w3.org/2000/svg" xmlns:xlink="http://www.w3.org/1999/xlink" id="svg11300" width="512" height="512" version="1.0" style="display:inline;enable-background:new"><title id="title3004">Template</title><defs id="defs3"><linearGradient id="linearGradient3874"><stop id="stop3876" offset="0" style="stop-color:#fff;stop-opacity:1"/><stop id="stop3878" offset="1" style="stop-color:#fff;stop-opacity:0"/></linearGradient><linearGradient id="linearGradient3858"><stop style="stop-color:#000;stop-opacity:1" id="stop3860" offset="0"/><stop style="stop-color:#000;stop-opacity:0" id="stop3862" offset="1"/></linearGradient><linearGradient id="linearGradient3045"><stop style="stop-color:#91bedd;stop-opacity:1" id="stop3047" offset="0"/><stop style="stop-color:#4986b1;stop-opacity:1" id="stop3049" offset="1"/></linearGradient><linearGradient id="linearGradient4213"><stop id="stop4215" offset="0" style="stop-color:#b1d7f3;stop-opacity:1"/><stop id="stop4217" offset="1" style="stop-color:#8fafda;stop-opacity:1"/></linearGradient><linearGradient id="linearGradient5460" osb:paint="gradient"><stop style="stop-color:#e6e6e6;stop-opacity:1" id="stop5462" offset="0"/><stop style="stop-color:#fff;stop-opacity:1" id="stop5464" offset="1"/></linearGradient><linearGradient id="linearGradient5476" osb:paint="solid"><stop style="stop-color:#772953;stop-opacity:1" id="stop5478" offset="0"/></linearGradient><linearGradient id="linearGradient3037" x1="144" x2="144" y1="918.362" y2="1052.362" gradientTransform="matrix(1.7777778,0,0,1.7761194,16,-1563.3597)" gradientUnits="userSpaceOnUse" xlink:href="#linearGradient4213"/><filter id="filter4223" style="color-interpolation-filters:sRGB"><feBlend id="feBlend4225" in2="BackgroundImage" mode="multiply"/></filter><filter id="filter4154" style="color-interpolation-filters:sRGB"><feComposite id="feComposite4156" in2="SourceGraphic" k1="0" k2="1" k3="0" k4="0" operator="arithmetic" result="composite1"/><feColorMatrix id="feColorMatrix4158" in="composite1" result="colormatrix1" type="saturate" values="0"/><feFlood id="feFlood4160" flood-color="#483B48" result="flood1"/><feBlend id="feBlend4162" in="flood1" in2="colormatrix1" mode="multiply" result="blend1"/><feBlend id="feBlend4164" in2="blend1" mode="screen" result="blend2"/><feColorMatrix id="feColorMatrix4166" in="blend2" result="colormatrix2" type="saturate" values="1"/><feComposite id="feComposite4168" in="colormatrix2" in2="SourceGraphic" operator="in" result="composite2"/></filter><linearGradient id="linearGradient3864" x1="272" x2="368" y1="256" y2="352" gradientUnits="userSpaceOnUse" xlink:href="#linearGradient3858"/><linearGradient id="linearGradient3872" x1="272" x2="368" y1="256" y2="352" gradientTransform="rotate(180,272,272)" gradientUnits="userSpaceOnUse" xlink:href="#linearGradient3874"/><linearGradient id="linearGradient3890" x1="272" x2="368" y1="256" y2="352" gradientUnits="userSpaceOnUse" xlink:href="#linearGradient3858"/><linearGradient id="linearGradient3895" x1="272" x2="368" y1="256" y2="352" gradientTransform="rotate(180,272,272)" gradientUnits="userSpaceOnUse" xlink:href="#linearGradient3874"/><linearGradient id="linearGradient3906" x1="288" x2="360" y1="264" y2="328" gradientTransform="rotate(180,272,272)" gradientUnits="userSpaceOnUse" xlink:href="#linearGradient3874"/><linearGradient id="linearGradient3908" x1="288" x2="368" y1="272" y2="352" gradientUnits="userSpaceOnUse" xlink:href="#linearGradient3858"/><filter style="color-interpolation-filters:sRGB" id="filter9414" width="1.121" height="1.119" x="-.06" y="-.06"><feGaussianBlur id="feGaussianBlur9416" stdDeviation="6.437"/></filter><filter style="color-interpolation-filters:sRGB" id="filter9420" width="1.024" height="1.024" x="-.012" y="-.012"><feGaussianBlur id="feGaussianBlur9422" stdDeviation="1.287"/></filter><clipPath id="clipPath9430" clipPathUnits="userSpaceOnUse"><path id="path9432" d="m 166.0625,-196 179.875,0 C 491.2348,-196 512,-175.28677 512,-30.125 l 0,148.25 C 512,263.28618 491.2348,284 345.9375,284 l -179.875,0 C 20.7652,284 0,263.28618 0,118.125 L 0,-30.125 C 0,-175.28677 20.7652,-196 166.0625,-196 Z" style="color:#000;display:inline;overflow:visible;visibility:visible;fill:#fff;fill-opacity:1;fill-rule:nonzero;stroke:none;stroke-width:1;marker:none;enable-background:new"/></clipPath><filter style="color-interpolation-filters:sRGB" id="filter9443" width="1.241" height="1.248" x="-.121" y="-.124"><feGaussianBlur id="feGaussianBlur9445" stdDeviation="12.876"/></filter><filter style="color-interpolation-filters:sRGB" id="filter9447" width="1.047" height="1.049" x="-.023" y="-.025"><feGaussianBlur id="feGaussianBlur9449" stdDeviation="2.49"/></filter></defs><metadata id="metadata4"/><g style="display:inline" id="layer1" transform="translate(0,212)"><g id="layer3" style="display:inline"><path style="opacity:1;fill:#fff;fill-opacity:1;stroke:none;stroke-width:15.99999809;stroke-linecap:round;stroke-linejoin:miter;stroke-miterlimit:4;stroke-dasharray:none;stroke-dashoffset:0;stroke-opacity:1" id="rect30531" d="M 0,-212 0,-30.125 C 0,-175.28677 20.7652,-196 166.0625,-196 l 179.875,0 C 491.2348,-196 512,-175.28677 512,-30.125 L 512,-212 Z M 0,118.125 0,300 l 512,0 0,-181.875 C 512,263.28618 491.2348,284 345.9375,284 l -179.875,0 C 20.7652,284 0,263.28618 0,118.125 Z"/><g id="g9424" clip-path="url(#clipPath9430)"><path id="path3841" d="m 99.03125,49 89.9375,0 C 261.6174,49 272,59.356615 272,131.9375 L 272,225 c 0,72.58059 -10.3826,82.9375 -83.03125,82.9375 l -89.9375,0 C 26.382599,307.9375 16,297.58059 16,225 l 0,-93.0625 C 16,59.356615 26.382599,49 99.03125,49 Z" transform="matrix(2,0,0,2,-31.999999,-294)" style="color:#000;display:inline;overflow:visible;visibility:visible;opacity:.5;fill:none;stroke:#000;stroke-width:2;stroke-miterlimit:4;stroke-dasharray:none;stroke-opacity:1;marker:none;enable-background:new;filter:url(#filter9414)"/><path style="color:#000;display:inline;overflow:visible;visibility:visible;opacity:.8;fill:none;stroke:#000;stroke-width:2;stroke-miterlimit:4;stroke-dasharray:none;stroke-opacity:1;marker:none;filter:url(#filter9420);enable-background:new" id="path9418" d="m 99.03125,49 89.9375,0 C 261.6174,49 272,59.356615 272,131.9375 l 0,74.35539 c 0,72.58059 -10.3826,82.9375 -83.03125,82.9375 l -89.9375,0 C 26.382599,289.23039 16,278.87348 16,206.29289 L 16,131.9375 C 16,59.356615 26.382599,49 99.03125,49 Z" transform="matrix(2,0,0,2,-31.999999,-294)"/><path style="color:#000;display:inline;overflow:visible;visibility:visible;opacity:.2;fill:none;stroke:#000;stroke-width:1;stroke-miterlimit:4;stroke-dasharray:none;stroke-opacity:1;marker:none;enable-background:new;filter:url(#filter9447)" id="path3843" d="m 99.03125,48 89.9375,0 C 261.6174,48 272,58.356615 272,130.9375 l 0,76.125 C 272,279.64309 261.6174,290 188.96875,290 l -89.9375,0 C 26.382599,290 16,279.64309 16,207.0625 l 0,-76.125 C 16,58.356615 26.382599,48 99.03125,48 Z" transform="matrix(2,0,0,2,-31.999999,-294)"/><path style="color:#000;display:inline;overflow:visible;visibility:visible;opacity:.2;fill:none;stroke:#000;stroke-width:1;stroke-miterlimit:4;stroke-dasharray:none;stroke-opacity:1;marker:none;enable-background:new;filter:url(#filter9443)" id="path3867" d="m 99.03125,46.0005 89.9375,0 C 261.6174,46.0005 272,56.357115 272,128.938 l 0,83.0625 c 0,72.58059 -10.3826,82.9375 -83.03125,82.9375 l -89.9375,0 C 26.382599,294.938 16,284.58109 16,212.0005 L 16,128.938 C 16,56.357115 26.382599,46.0005 99.03125,46.0005 Z" transform="matrix(2,0,0,2,-31.999999,-286)"/></g></g></g></svg>