<svg xmlns="http://www.w3.org/2000/svg" xmlns:svg="http://www.w3.org/2000/svg" xmlns:xlink="http://www.w3.org/1999/xlink" id="svg3336" width="512" height="512" version="1.1" viewBox="0 0 512 512" style="enable-background:new"><defs id="defs3338"><linearGradient id="linearGradient15626"><stop style="stop-color:#000;stop-opacity:0" id="stop15628" offset="0"/><stop id="stop15634" offset=".5" style="stop-color:#000;stop-opacity:1"/><stop style="stop-color:#000;stop-opacity:0" id="stop15630" offset="1"/></linearGradient><filter style="color-interpolation-filters:sRGB" id="filter5423" width="1.024" height="1.024" x="-.012" y="-.012"><feGaussianBlur id="feGaussianBlur5425" stdDeviation="1.52"/></filter><linearGradient id="linearGradient5435" x1="100.352" x2="411.648" y1="260" y2="260" gradientTransform="translate(0,2)" gradientUnits="userSpaceOnUse" xlink:href="#linearGradient15626"/><filter style="color-interpolation-filters:sRGB" id="filter5441" width="1.24" height="1.24" x="-.12" y="-.12"><feGaussianBlur id="feGaussianBlur5443" stdDeviation="15.2"/></filter></defs><metadata id="metadata3341"/><g id="layer3" style="display:inline"><path id="path14907" d="m 0,0 0,512 512,0 0,-512 z" style="color:#000;display:inline;overflow:visible;visibility:visible;fill:#31abf0;fill-opacity:1;fill-rule:nonzero;stroke:none;stroke-width:1;marker:none;enable-background:accumulate"/><path style="enable-background:accumulate;display:inline;color:#000;overflow:visible;visibility:visible;opacity:.05;fill:#000;fill-opacity:1;fill-rule:nonzero;stroke:none;stroke-width:7.99999952;stroke-linecap:butt;stroke-linejoin:miter;stroke-miterlimit:4;stroke-dasharray:none;stroke-dashoffset:0;stroke-opacity:1;marker:none" id="rect4238" d="M 0,1e-6 0,512 256,512 256,328.10156 256,183.89844 256,1e-6 Z"/></g><g id="layer4" style="display:inline"><rect id="rect5421" width="304" height="304" x="104" y="106" ry="152" style="opacity:.1;fill:#000;fill-opacity:1;stroke:none;stroke-width:2;stroke-linecap:square;stroke-linejoin:round;stroke-miterlimit:4;stroke-dasharray:none;stroke-opacity:1;filter:url(#filter5423)"/><rect style="opacity:.4;fill:url(#linearGradient5435);fill-opacity:1;stroke:none;stroke-width:2;stroke-linecap:square;stroke-linejoin:round;stroke-miterlimit:4;stroke-dasharray:none;stroke-opacity:1;filter:url(#filter5441)" id="rect5427" width="304" height="304" x="104" y="110" ry="152"/><rect style="opacity:1;fill:#e7e7df;fill-opacity:1;stroke:none;stroke-width:2;stroke-linecap:square;stroke-linejoin:round;stroke-miterlimit:4;stroke-dasharray:none;stroke-opacity:1" id="rect5419" width="304" height="304" x="104" y="104" ry="152"/><path style="opacity:1;fill:#fff;fill-opacity:1;stroke:none;stroke-width:2;stroke-linecap:square;stroke-linejoin:round;stroke-miterlimit:4;stroke-dasharray:none;stroke-opacity:1" id="rect5445" d="M 256 104 C 171.792 104 104 171.792 104 256 C 104 256.16716 104.00533 256.33297 104.00586 256.5 C 104.27427 172.52441 171.95916 105 256 105 C 340.04084 105 407.72573 172.52441 407.99414 256.5 C 407.99467 256.33297 408 256.16716 408 256 C 408 171.792 340.208 104 256 104 z"/></g></svg>