<svg xmlns="http://www.w3.org/2000/svg" xmlns:svg="http://www.w3.org/2000/svg" xmlns:xlink="http://www.w3.org/1999/xlink" id="svg3336" width="512" height="512" version="1.1" viewBox="0 0 512 512" style="enable-background:new"><defs id="defs3338"><linearGradient id="linearGradient5496"><stop style="stop-color:#000;stop-opacity:0" id="stop5498" offset="0"/><stop id="stop5504" offset=".507" style="stop-color:#000;stop-opacity:1"/><stop style="stop-color:#000;stop-opacity:0" id="stop5500" offset="1"/></linearGradient><filter style="color-interpolation-filters:sRGB" id="filter5490" width="1.024" height="1.024" x="-.012" y="-.012"><feGaussianBlur id="feGaussianBlur5492" stdDeviation="1.709"/></filter><linearGradient id="linearGradient5502" x1="128" x2="392" y1="192" y2="304" gradientTransform="translate(0,4)" gradientUnits="userSpaceOnUse" xlink:href="#linearGradient5496"/><filter style="color-interpolation-filters:sRGB" id="filter5506" width="1.236" height="1.244" x="-.118" y="-.122"><feGaussianBlur id="feGaussianBlur5508" stdDeviation="17.088"/></filter></defs><metadata id="metadata3341"/><g id="layer3" style="display:inline"><path id="path14907" d="m 0,0 0,512 512,0 0,-512 z" style="color:#000;display:inline;overflow:visible;visibility:visible;fill:#31abf0;fill-opacity:1;fill-rule:nonzero;stroke:none;stroke-width:1;marker:none;enable-background:accumulate"/><path style="opacity:.05;fill:#fff;fill-opacity:1;fill-rule:evenodd;stroke:none;stroke-width:1px;stroke-linecap:butt;stroke-linejoin:miter;stroke-opacity:1" id="path5484" d="M 152,512 192,416 288,186 362,10e-7 512,10e-7 512,512 Z"/></g><g id="layer4" style="display:inline"><path id="path5488" d="M 192,418 336,418 436,186 288,186 183.78265,82.217797 87.346429,315.03544 Z" style="opacity:.1;fill:#000;fill-opacity:1;stroke:none;stroke-width:2;stroke-linecap:square;stroke-linejoin:round;stroke-miterlimit:4;stroke-dasharray:none;stroke-opacity:1;filter:url(#filter5490)"/><path style="opacity:.4;fill:url(#linearGradient5502);fill-opacity:1;stroke:none;stroke-width:2;stroke-linecap:square;stroke-linejoin:round;stroke-miterlimit:4;stroke-dasharray:none;stroke-opacity:1;filter:url(#filter5506)" id="path5494" d="M 192,422 336,422 436,190 288,190 183.78265,86.217797 87.346429,319.03544 Z"/><path style="opacity:1;fill:#e7e7df;fill-opacity:1;stroke:none;stroke-width:2;stroke-linecap:square;stroke-linejoin:round;stroke-miterlimit:4;stroke-dasharray:none;stroke-opacity:1" id="rect5419" d="M 192,416 336,416 436,184 288,184 183.78265,80.217797 87.346429,313.03544 Z"/><path style="opacity:.8;fill:#fff;fill-opacity:1;stroke:none;stroke-width:2;stroke-linecap:square;stroke-linejoin:round;stroke-miterlimit:4;stroke-dasharray:none;stroke-opacity:1" id="path4556" d="M 183.7832 80.21875 L 87.345703 313.03516 L 87.640625 313.32422 L 183.7832 81.21875 L 288 185 L 435.56836 185 L 436 184 L 288 184 L 183.7832 80.21875 z"/></g></svg>